<?xml version="1.0" encoding="UTF-8" standalone="no"?>
<!DOCTYPE svg PUBLIC "-//W3C//DTD SVG 1.1//EN" "http://www.w3.org/Graphics/SVG/1.1/DTD/svg11.dtd">
<svg version="1.1" xmlns="http://www.w3.org/2000/svg" xmlns:xlink="http://www.w3.org/1999/xlink" preserveAspectRatio="xMidYMid meet" viewBox="0 0 600 600" width="32" height="32"><defs><path d="M564 281.25C564 388.18 477.18 475 370.25 475C263.32 475 176.5 388.18 176.5 281.25C176.5 174.32 263.32 87.5 370.25 87.5C477.18 87.5 564 174.32 564 281.25Z" id="a1MNYinbke"></path><path d="M382.75 293.75C382.75 374.05 317.55 439.25 237.25 439.25C156.95 439.25 91.75 374.05 91.75 293.75C91.75 213.45 156.95 148.25 237.25 148.25C317.55 148.25 382.75 213.45 382.75 293.75Z" id="arFRUNgCL"></path><path d="M195.25 293.75C195.25 332.11 164.11 363.25 125.75 363.25C87.39 363.25 56.25 332.11 56.25 293.75C56.25 255.39 87.39 224.25 125.75 224.25C164.11 224.25 195.25 255.39 195.25 293.75Z" id="c48qnTrN0"></path></defs><g><g><use xlink:href="#a1MNYinbke" opacity="1" fill="#ff8d00" fill-opacity="1"></use></g><g><use xlink:href="#arFRUNgCL" opacity="1" fill="#f9b259" fill-opacity="1"></use></g><g><use xlink:href="#c48qnTrN0" opacity="1" fill="#ffd5a2" fill-opacity="1"></use></g></g></svg>